<svg width="23" height="28" viewBox="0 0 23 28" fill="none" xmlns="http://www.w3.org/2000/svg">
<path d="M16.8884 0H17.0876C17.2474 1.97462 16.4937 3.45005 15.5777 4.51851C14.6789 5.57959 13.4482 6.6087 11.4576 6.45255C11.3248 4.50621 12.0797 3.14021 12.9945 2.07421C13.8429 1.08075 15.3982 0.196724 16.8884 0ZM22.9143 20.5528V20.6081C22.3549 22.3024 21.5569 23.7544 20.5831 25.102C19.6942 26.3254 18.6048 27.9717 16.6597 27.9717C14.9789 27.9717 13.8625 26.891 12.14 26.8615C10.3178 26.8319 9.31574 27.7652 7.64973 28H7.08169C5.85831 27.8229 4.871 26.8541 4.15173 25.9811C2.03079 23.4016 0.391837 20.0696 0.0869141 15.8056V14.5527C0.216014 11.501 1.69882 9.0198 3.66975 7.81733C4.70993 7.17797 6.13987 6.63329 7.73211 6.87674C8.41449 6.98248 9.11164 7.21609 9.72271 7.44724C10.3018 7.66978 11.026 8.06446 11.7121 8.04356C12.1768 8.03004 12.6391 7.78782 13.1076 7.61691C14.4797 7.12142 15.8249 6.55337 17.5978 6.82018C19.7286 7.14232 21.2409 8.08905 22.1754 9.54973C20.3729 10.6969 18.9478 12.4256 19.1913 15.3777C19.4077 18.0593 20.9667 19.6282 22.9143 20.5528Z" fill="black"/>
</svg>
