<svg width="20" height="24" viewBox="0 0 20 24" fill="none" xmlns="http://www.w3.org/2000/svg">
<path d="M10 0.625C7.59717 0.625 5.625 2.59717 5.625 5V5.875H1.30469L1.25 6.69531L0.375 22.4453L0.320312 23.375H19.6797L19.625 22.4453L18.75 6.69531L18.6953 5.875H14.375V5C14.375 2.59717 12.4028 0.625 10 0.625ZM10 2.375C11.4492 2.375 12.625 3.55078 12.625 5V5.875H7.375V5C7.375 3.55078 8.55078 2.375 10 2.375ZM2.94531 7.625H5.625V10.25H7.375V7.625H12.625V10.25H14.375V7.625H17.0547L17.8203 21.625H2.17969L2.94531 7.625Z" fill="#090909"/>
</svg>
