<svg width="13" height="24" viewBox="0 0 13 24" fill="none" xmlns="http://www.w3.org/2000/svg">
<path d="M3.82237 13.4465C3.73445 13.4465 1.89009 13.447 1.03945 13.4462C0.601528 13.4459 0.445288 13.2885 0.445288 12.8478C0.444588 11.7158 0.444588 10.5837 0.445288 9.4517C0.445568 9.01658 0.610768 8.85054 1.04309 8.85026C1.89373 8.8497 3.72801 8.84998 3.82237 8.84998V6.38542C3.82293 5.2727 4.02145 4.20758 4.58677 3.23234C5.16553 2.23414 6.00777 1.55038 7.08717 1.15502C7.77849 0.901617 8.49613 0.800537 9.22973 0.799977C10.1476 0.799417 11.0654 0.800257 11.9835 0.801937C12.378 0.802497 12.553 0.976937 12.5539 1.37426C12.5556 2.4391 12.5556 3.50394 12.5539 4.5685C12.5533 4.97002 12.3856 5.1313 11.9821 5.13578C11.2298 5.1439 10.4768 5.13886 9.72533 5.1691C8.96625 5.1691 8.56697 5.53982 8.56697 6.3255C8.54877 7.15654 8.55941 7.98842 8.55941 8.8497C8.63053 8.8497 10.7907 8.84942 11.8004 8.8497C12.259 8.8497 12.4158 9.00734 12.4158 9.4685C12.4158 10.5944 12.4156 11.7205 12.4147 12.8464C12.4144 13.3009 12.2672 13.4459 11.8057 13.4462C10.796 13.4467 8.64425 13.4465 8.55017 13.4465V22.5591C8.55017 23.0449 8.39729 23.1997 7.91793 23.1997H4.41149C3.98785 23.1997 3.82265 23.0351 3.82265 22.6114L3.82237 13.4465Z" fill="#3D6AD6"/>
</svg>
