<svg width="29" height="28" viewBox="0 0 29 28" fill="none" xmlns="http://www.w3.org/2000/svg">
<path d="M6.70539 16.9207L5.73075 20.5592L2.16846 20.6346C1.10386 18.66 0.5 16.4008 0.5 14C0.5 11.6785 1.06459 9.4892 2.06538 7.56152H2.06614L5.23758 8.14296L6.62686 11.2954C6.33609 12.1431 6.1776 13.0531 6.1776 14C6.17771 15.0277 6.36387 16.0123 6.70539 16.9207Z" fill="#FBBB00"/>
<path d="M28.2554 11.3846C28.4162 12.2315 28.5 13.1062 28.5 14C28.5 15.0023 28.3946 15.98 28.1938 16.9231C27.5123 20.1323 25.7315 22.9346 23.2646 24.9177L23.2639 24.917L19.2693 24.7131L18.7039 21.1839C20.3408 20.2239 21.6201 18.7216 22.2939 16.9231H14.8078V11.3846H28.2554Z" fill="#518EF8"/>
<path d="M23.2638 24.9169L23.2646 24.9177C20.8654 26.8461 17.8177 28 14.5 28C9.16846 28 4.53309 25.02 2.16846 20.6346L6.70539 16.9208C7.88768 20.0761 10.9315 22.3223 14.5 22.3223C16.0338 22.3223 17.4708 21.9077 18.7038 21.1838L23.2638 24.9169Z" fill="#28B446"/>
<path d="M23.4361 3.22306L18.9008 6.93613C17.6246 6.13845 16.1161 5.67766 14.5 5.67766C10.8508 5.67766 7.74997 8.02687 6.62691 11.2954L2.06613 7.56153H2.06537C4.39538 3.06923 9.08921 0 14.5 0C17.8969 0 21.0115 1.21002 23.4361 3.22306Z" fill="#F14336"/>
</svg>
